<?xml version="1.0" standalone="no"?>
<!DOCTYPE svg PUBLIC "-//W3C//DTD SVG 20010904//EN"
 "http://www.w3.org/TR/2001/REC-SVG-20010904/DTD/svg10.dtd">
<svg version="1.0" xmlns="http://www.w3.org/2000/svg"
 width="260.000000pt" height="260.000000pt" viewBox="0 0 260.000000 260.000000"
 preserveAspectRatio="xMidYMid meet">
<metadata>
Created by potrace 1.11, written by Peter Selinger 2001-2013
</metadata>
<g transform="translate(0.000000,260.000000) scale(0.100000,-0.100000)"
fill="#000000" stroke="none">
<path d="M1097 1940 c-27 -5 -59 -16 -73 -24 -23 -16 -24 -21 -24 -121 l0
-105 -40 0 -40 0 0 55 0 55 -112 -1 c-62 -1 -138 -4 -168 -7 l-55 -7 3 -47 3
-48 -59 0 c-103 0 -98 31 -94 -484 3 -403 5 -443 21 -466 47 -66 146 -85 436
-84 105 0 409 1 677 2 l487 1 35 23 c69 45 70 49 63 352 -12 476 -17 553 -41
589 -12 17 -37 40 -56 51 -32 19 -49 21 -207 18 l-173 -3 0 83 c0 102 -19 141
-77 159 -46 14 -438 21 -506 9z m438 -40 c3 -5 2 -10 -4 -10 -5 0 -13 5 -16
10 -3 6 -2 10 4 10 5 0 13 -4 16 -10z m-27 -76 c18 -3 22 -11 22 -39 l0 -35
-177 6 c-98 3 -184 7 -190 10 -7 2 -13 17 -13 33 0 16 6 31 13 34 15 5 313 -2
345 -9z m-391 -16 c-3 -8 -6 -5 -6 6 -1 11 2 17 5 13 3 -3 4 -12 1 -19z m-217
-54 c0 -14 -4 -23 -10 -19 -5 3 -10 15 -10 26 0 10 5 19 10 19 6 0 10 -12 10
-26z m127 -26 c-2 -13 -4 -5 -4 17 -1 22 1 32 4 23 2 -10 2 -28 0 -40z m-168
5 c-1 -18 -3 -21 -6 -10 -2 10 -12 16 -20 15 -9 -2 -18 3 -20 10 -3 7 5 12 21
12 22 0 26 -4 25 -27z m-146 10 c-7 -2 -19 -2 -25 0 -7 3 -2 5 12 5 14 0 19
-2 13 -5z m57 0 c0 -5 -5 -15 -10 -23 -8 -12 -10 -11 -10 8 0 12 5 22 10 22 6
0 10 -3 10 -7z m573 -10 c-18 -2 -48 -2 -65 0 -18 2 -4 4 32 4 36 0 50 -2 33
-4z m247 -8 c0 -9 -6 -12 -15 -9 -9 4 -15 0 -15 -10 0 -22 -17 -20 -23 3 -3
13 1 21 12 24 31 9 41 7 41 -8z m-155 -5 c-3 -5 -10 -10 -16 -10 -5 0 -9 5 -9
10 0 6 7 10 16 10 8 0 12 -4 9 -10z m-325 -17 c0 -38 -13 -93 -21 -93 -10 0
-12 54 -3 88 7 26 24 30 24 5z m-440 -24 c0 -11 -4 -18 -10 -14 -5 3 -7 12 -3
20 7 21 13 19 13 -6z m823 14 c-7 -2 -19 -2 -25 0 -7 3 -2 5 12 5 14 0 19 -2
13 -5z m-731 -45 c-8 -8 -9 -4 -5 13 4 13 8 18 11 10 2 -7 -1 -18 -6 -23z m35
0 c-3 -7 -5 -2 -5 12 0 14 2 19 5 13 2 -7 2 -19 0 -25z m750 10 c-3 -8 -6 -5
-6 6 -1 11 2 17 5 13 3 -3 4 -12 1 -19z m-77 -8 c0 -11 -2 -20 -4 -20 -2 0 -6
9 -9 20 -3 11 -1 20 4 20 5 0 9 -9 9 -20z m-593 -32 c-3 -7 -5 -2 -5 12 0 14
2 19 5 13 2 -7 2 -19 0 -25z m73 13 c0 -5 -9 -7 -20 -4 -11 3 -20 7 -20 9 0 2
9 4 20 4 11 0 20 -4 20 -9z m1141 -8 c13 -16 12 -17 -3 -4 -17 13 -22 21 -14
21 2 0 10 -8 17 -17z m-1428 -10 c-7 -2 -19 -2 -25 0 -7 3 -2 5 12 5 14 0 19
-2 13 -5z m614 -25 c-3 -8 -6 -5 -6 6 -1 11 2 17 5 13 3 -3 4 -12 1 -19z m605
-20 c-7 -7 -12 -8 -12 -2 0 6 3 14 7 17 3 4 9 5 12 2 2 -3 -1 -11 -7 -17z
m124 -5 c12 -14 8 -49 -8 -69 -27 -36 -98 -6 -98 41 0 48 75 68 106 28z
m-1459 -5 c-3 -8 -6 -5 -6 6 -1 11 2 17 5 13 3 -3 4 -12 1 -19z m553 -5 c-1
-24 -2 -26 -11 -10 -5 9 -7 22 -4 27 10 17 15 11 15 -17z m-290 6 c38 -8 50
-15 50 -29 0 -10 -4 -21 -9 -24 -4 -3 -63 -7 -130 -8 -131 -3 -141 0 -141 50
0 21 3 22 90 22 49 0 112 -5 140 -11z m730 -9 c0 -5 -4 -10 -10 -10 -5 0 -10
5 -10 10 0 6 5 10 10 10 6 0 10 -4 10 -10z m-1023 -22 c-3 -8 -6 -5 -6 6 -1
11 2 17 5 13 3 -3 4 -12 1 -19z m943 -3 l35 -14 -40 7 c-77 14 -168 6 -233
-21 -68 -27 -81 -27 -29 -1 83 44 198 56 267 29z m347 -52 c-3 -10 -5 -4 -5
12 0 17 2 24 5 18 2 -7 2 -21 0 -30z m-1287 6 c0 -6 -4 -7 -10 -4 -5 3 -10 11
-10 16 0 6 5 7 10 4 6 -3 10 -11 10 -16z m994 -18 c74 -36 113 -78 156 -166
42 -86 50 -174 20 -243 -31 -71 -109 -141 -197 -177 -92 -37 -207 -38 -286 -2
-69 32 -146 103 -182 169 -25 44 -29 64 -29 123 0 84 22 139 84 208 79 89 173
129 292 124 62 -3 89 -10 142 -36z m371 29 c3 -6 -1 -7 -9 -4 -18 7 -21 14 -7
14 6 0 13 -4 16 -10z m37 -65 c-2 -14 -6 -25 -8 -25 -2 0 -4 11 -4 25 0 14 4
25 9 25 4 0 6 -11 3 -25z m-1362 5 c0 -5 -4 -10 -10 -10 -5 0 -10 5 -10 10 0
6 5 10 10 10 6 0 10 -4 10 -10z m110 0 c0 -5 -2 -10 -4 -10 -3 0 -8 5 -11 10
-3 6 -1 10 4 10 6 0 11 -4 11 -10z m90 -5 c0 -8 -2 -15 -4 -15 -2 0 -6 7 -10
15 -3 8 -1 15 4 15 6 0 10 -7 10 -15z m50 -7 c0 -19 -2 -20 -10 -8 -13 19 -13
30 0 30 6 0 10 -10 10 -22z m1160 18 c0 -3 -4 -8 -10 -11 -5 -3 -10 -1 -10 4
0 6 5 11 10 11 6 0 10 -2 10 -4z m-1234 -67 c4 -45 -4 -31 -20 36 -6 23 -5 27
4 19 6 -6 13 -31 16 -55z m101 -16 c-2 -16 -4 -5 -4 22 0 28 2 40 4 28 2 -13
2 -35 0 -50z m203 47 c-6 -11 -13 -20 -16 -20 -2 0 0 9 6 20 6 11 13 20 16 20
2 0 0 -9 -6 -20z m1077 -92 c-2 -24 -4 -7 -4 37 0 44 2 63 4 43 2 -21 2 -57 0
-80z m-33 57 l6 -30 -14 25 c-8 14 -12 28 -9 33 7 11 9 7 17 -28z m-1450 -10
c5 -22 4 -26 -4 -15 -5 8 -10 24 -10 34 0 26 6 18 14 -19z m53 -22 c-3 -10 -5
-2 -5 17 0 19 2 27 5 18 2 -10 2 -26 0 -35z m1279 -88 c7 -55 6 -59 -9 -46
-13 10 -17 30 -16 90 1 61 2 70 10 46 5 -16 12 -57 15 -90z m-984 69 c-11 -23
-18 -31 -20 -21 -4 19 15 57 28 57 5 0 2 -16 -8 -36z m780 -9 c2 -19 1 -35 -3
-35 -4 0 -9 16 -11 35 -2 19 -1 35 3 35 4 0 9 -16 11 -35z m-1137 -284 c10
-90 -4 -52 -20 55 -8 54 -14 128 -14 164 1 58 3 53 15 -50 7 -63 15 -140 19
-169z m22 247 c-3 -7 -5 -2 -5 12 0 14 2 19 5 13 2 -7 2 -19 0 -25z m195 -81
c-7 -13 -9 -5 -15 48 l-6 50 13 -45 c7 -25 11 -49 8 -53z m1044 -43 c-9 -8
-16 -32 -17 -52 l-1 -37 -8 35 c-6 25 -4 44 6 64 8 16 15 52 15 80 l2 51 9
-62 c8 -53 7 -65 -6 -79z m-1169 -47 c-2 -23 -3 -1 -3 48 0 50 1 68 3 42 2
-26 2 -67 0 -90z m1410 51 c-2 -18 -4 -6 -4 27 0 33 2 48 4 33 2 -15 2 -42 0
-60z m-1620 35 c-3 -10 -5 -4 -5 12 0 17 2 24 5 18 2 -7 2 -21 0 -30z m1496
-6 c3 -22 2 -35 -4 -32 -5 4 -9 22 -9 42 0 45 5 40 13 -10z m-990 -160 c25
-41 84 -102 137 -140 24 -17 24 -17 -10 -1 -92 43 -166 141 -175 230 l-5 49
14 -47 c8 -26 25 -67 39 -91z m-253 46 c0 -81 -7 -79 -16 5 -4 43 -3 62 5 62
7 0 11 -24 11 -67z m1070 5 c0 -64 -5 -60 -13 10 -4 32 -2 50 3 47 6 -4 10
-29 10 -57z m250 30 c0 -23 -3 -29 -11 -21 -6 6 -8 20 -4 32 9 30 15 26 15
-11z m-1293 -10 c-3 -7 -5 -2 -5 12 0 14 2 19 5 13 2 -7 2 -19 0 -25z m71 -73
c1 -42 -2 -54 -8 -40 -5 11 -8 49 -8 85 0 47 2 58 8 40 4 -14 8 -52 8 -85z
m1054 70 c-6 -34 -12 -32 -12 6 0 16 4 28 9 25 4 -3 6 -17 3 -31z m-997 -5 c3
-6 -1 -7 -9 -4 -18 7 -21 14 -7 14 6 0 13 -4 16 -10z m1095 -107 c-8 -48 -8
-48 -8 22 -1 49 2 64 8 48 5 -11 5 -43 0 -70z m67 -11 c-3 -43 -11 -89 -17
-102 -11 -26 -10 1 6 128 10 80 18 62 11 -26z m-150 -24 c-2 -18 -4 -4 -4 32
0 36 2 50 4 33 2 -18 2 -48 0 -65z m-90 40 c-3 -7 -5 -2 -5 12 0 14 2 19 5 13
2 -7 2 -19 0 -25z m270 -30 c-3 -7 -5 -2 -5 12 0 14 2 19 5 13 2 -7 2 -19 0
-25z m-1337 -42 c0 -51 -6 -43 -14 19 -5 36 -4 46 3 35 6 -8 11 -33 11 -54z
m996 8 c-3 -8 -10 -13 -16 -9 -6 3 -5 16 3 32 9 21 13 23 15 9 2 -9 1 -24 -2
-32z m-1103 -14 c3 -11 1 -18 -4 -14 -5 3 -9 12 -9 20 0 20 7 17 13 -6z m1244
-61 c13 -13 18 -6 26 41 3 14 4 3 3 -25 -1 -49 -1 -50 -33 -50 l-33 0 1 55 c1
54 1 54 12 23 7 -18 17 -38 24 -44z m-1084 19 c3 -21 2 -38 -4 -38 -5 0 -9 19
-9 42 0 49 5 47 13 -4z m-213 -18 c10 -19 10 -20 -9 -8 -11 6 -17 16 -15 20 8
12 12 10 24 -12z m327 -12 c-3 -7 -5 -2 -5 12 0 14 2 19 5 13 2 -7 2 -19 0
-25z m788 -28 c-16 -16 -34 -30 -39 -30 -12 1 49 60 61 60 4 0 -6 -13 -22 -30z
m305 -5 c-7 -9 -15 -13 -18 -10 -3 2 1 11 8 20 7 9 15 13 18 10 3 -2 -1 -11
-8 -20z m-1487 -32 c-7 -2 -19 -2 -25 0 -7 3 -2 5 12 5 14 0 19 -2 13 -5z
m774 1 c-3 -3 -12 -4 -19 -1 -8 3 -5 6 6 6 11 1 17 -2 13 -5z m-796 -41 c13
-15 12 -15 -8 -4 -24 12 -29 21 -14 21 5 0 15 -7 22 -17z m584 7 c3 -5 -3 -10
-14 -10 -12 0 -21 5 -21 10 0 6 6 10 14 10 8 0 18 -4 21 -10z m682 4 c-3 -3
-12 -4 -19 -1 -8 3 -5 6 6 6 11 1 17 -2 13 -5z m-634 -11 c-7 -2 -19 -2 -25 0
-7 3 -2 5 12 5 14 0 19 -2 13 -5z m-443 -23 c0 -5 -4 -10 -9 -10 -6 0 -13 5
-16 10 -3 6 1 10 9 10 9 0 16 -4 16 -10z m78 -7 c-10 -2 -26 -2 -35 0 -10 3
-2 5 17 5 19 0 27 -2 18 -5z m520 0 c-15 -2 -42 -2 -60 0 -18 2 -6 4 27 4 33
0 48 -2 33 -4z m619 1 c-3 -3 -12 -4 -19 -1 -8 3 -5 6 6 6 11 1 17 -2 13 -5z
m-74 -11 c-24 -2 -62 -2 -85 0 -24 2 -5 4 42 4 47 0 66 -2 43 -4z"/>
<path d="M1305 1410 c-134 -33 -245 -146 -245 -250 0 -49 44 -133 88 -170 74
-61 164 -74 275 -40 107 33 162 96 174 200 20 174 -123 303 -292 260z m162
-66 c23 -13 51 -37 63 -54 27 -39 45 -125 36 -175 -11 -56 -75 -118 -145 -139
-61 -18 -137 -21 -146 -6 -3 6 -15 10 -27 10 -51 0 -121 87 -134 167 -5 35 -2
53 20 97 58 119 217 167 333 100z m-374 -204 c4 -30 3 -38 -3 -25 -8 19 -14
83 -6 74 2 -2 6 -24 9 -49z"/>
</g>
</svg>
